<svg aria-hidden="true" style="position: absolute; width: 0; height: 0; overflow: hidden;" version="1.1" xmlns="http://www.w3.org/2000/svg" xmlns:xlink="http://www.w3.org/1999/xlink">
<defs>

<symbol id="icon-white-button" viewBox="0 0 26 32">
<path fill="none" stroke="#d41443" style="stroke: var(--color1, #d41443)" stroke-linejoin="round" stroke-linecap="round" stroke-miterlimit="4" stroke-width="6.4" d="M5.172 3.2l14.169 12.8-14.169 12.8"></path>
</symbol>

<symbol id="icon-red-button" viewBox="0 0 26 32">
<path fill="none" stroke="#FFFFFF" style="stroke: var(--color1, #FFFFFF)" stroke-linejoin="round" stroke-linecap="round" stroke-miterlimit="4" stroke-width="6.4" d="M5.172 3.2l14.169 12.8-14.169 12.8"></path>
</symbol>

<symbol id="arrow-right" viewBox="0 0 32 32">
<path d="M19.414 27.414l10-10c0.781-0.781 0.781-2.047 0-2.828l-10-10c-0.781-0.781-2.047-0.781-2.828 0s-0.781 2.047 0 2.828l6.586 6.586h-19.172c-1.105 0-2 0.895-2 2s0.895 2 2 2h19.172l-6.586 6.586c-0.39 0.39-0.586 0.902-0.586 1.414s0.195 1.024 0.586 1.414c0.781 0.781 2.047 0.781 2.828 0z"></path>
</symbol>
<symbol id="arrow-left" viewBox="0 0 32 32">
<path d="M12.586 27.414l-10-10c-0.781-0.781-0.781-2.047 0-2.828l10-10c0.781-0.781 2.047-0.781 2.828 0s0.781 2.047 0 2.828l-6.586 6.586h19.172c1.105 0 2 0.895 2 2s-0.895 2-2 2h-19.172l6.586 6.586c0.39 0.39 0.586 0.902 0.586 1.414s-0.195 1.024-0.586 1.414c-0.781 0.781-2.047 0.781-2.828 0z"></path>
</symbol>

<!-- social icons -->
<symbol id="icon-facebook" viewBox="0 0 32 32">
<path d="M8.434 17.043h3.508v14.441c0 .285.231.516.516.516h5.947a.516.516 0 0 0 .516-.516V17.111h4.032a.517.517 0 0 0 .513-.457l.612-5.316a.517.517 0 0 0-.512-.575h-4.645V7.43c0-1.005.541-1.514 1.608-1.514h3.037a.516.516 0 0 0 .516-.516V.52a.516.516 0 0 0-.516-.516h-4.185C19.351.003 19.286 0 19.189 0c-.726 0-3.25.143-5.244 1.977-2.209 2.033-1.902 4.467-1.829 4.889v3.897H8.434a.516.516 0 0 0-.516.516v5.248c0 .285.231.516.516.516z"/></symbol>
<symbol id="icon-github" viewBox="0 0 32 32">
<path d="M16 2.667C8.633 2.667 2.667 8.634 2.667 16v.007c0 5.854 3.775 10.826 9.024 12.616l.094.028c.667.116.916-.284.916-.635 0-.316-.017-1.365-.017-2.483-3.349.617-4.216-.816-4.483-1.567-.151-.384-.8-1.567-1.367-1.884-.467-.249-1.133-.867-.017-.883 1.051-.017 1.8.967 2.051 1.367 1.2 2.016 3.117 1.449 3.883 1.1.117-.867.467-1.449.851-1.783-2.967-.333-6.067-1.484-6.067-6.584 0-1.451.516-2.649 1.367-3.584-.133-.333-.6-1.7.133-3.533 0 0 1.116-.349 3.667 1.368a12.096 12.096 0 0 1 3.309-.451h.026-.001c1.133 0 2.267.149 3.333.449 2.549-1.733 3.667-1.365 3.667-1.365.733 1.833.267 3.2.133 3.533.849.933 1.367 2.116 1.367 3.583 0 5.117-3.116 6.251-6.083 6.584.483.416.9 1.216.9 2.467 0 1.783-.017 3.216-.017 3.667 0 .349.251.765.917.632 5.324-1.837 9.081-6.804 9.083-12.649 0-7.367-5.967-13.333-13.333-13.333z"/></symbol>
<symbol id="icon-telegram" viewBox="0 0 32 32">
<path d="m27.553 4.956-23.64 9.116c-1.613.648-1.604 1.548-.296 1.949l6.069 1.893 14.043-8.86c.664-.404 1.271-.187.772.256L13.124 19.579l-.419 6.256c.613 0 .884-.281 1.228-.613l2.948-2.867 6.132 4.529c1.131.623 1.943.303 2.224-1.047l4.025-18.971c.412-1.652-.631-2.4-1.709-1.912z"/></symbol>
</defs>
</svg>